<?xml version="1.0" encoding="utf-8"?>
<!-- Generator: Adobe Illustrator 16.0.4, SVG Export Plug-In . SVG Version: 6.00 Build 0)  -->
<!DOCTYPE svg PUBLIC "-//W3C//DTD SVG 1.1//EN" "http://www.w3.org/Graphics/SVG/1.1/DTD/svg11.dtd">
<svg version="1.1" id="Layer_1" xmlns="http://www.w3.org/2000/svg" xmlns:xlink="http://www.w3.org/1999/xlink" x="0px" y="0px"
	 width="500px" height="500px" viewBox="0 0 500 500" enable-background="new 0 0 500 500" xml:space="preserve">
<g>
	<path fill="#FFFFFF" d="M319.555,290.283c-0.432-45.651-47.426-71.975-65.445-124.316c-2.867-11.101-4.719-17.894-4.719-17.894
		c-0.009,0.008-0.009,0.018-0.009,0.027c0-0.009,0-0.018-0.008-0.026c0,0-1.861,6.794-4.72,17.894
		c-18.02,52.341-65.014,78.666-65.445,124.317c-0.27,28.266,16.599,52.571,40.776,63.688c0.072,0.034,0.117,0.115,0.188,0.147
		c0.216,0.104,0.449,0.167,0.666,0.261c1.436,0.643,2.921,1.2,4.422,1.748c0.791,0.292,1.572,0.611,2.381,0.871
		c1.447,0.468,2.922,0.846,4.404,1.218c0.882,0.228,1.744,0.49,2.643,0.678c1.554,0.334,3.154,0.558,4.754,0.782
		c0.827,0.116,1.644,0.297,2.499,0.379c2.391,0.255,4.818,0.394,7.28,0.399c0.053,0,0.099,0.009,0.153,0.009h0.008h0.009
		c0.045,0,0.099-0.009,0.152-0.009c2.454-0.006,4.891-0.145,7.282-0.399c0.844-0.081,1.662-0.263,2.498-0.379
		c1.6-0.225,3.189-0.448,4.754-0.782c0.891-0.188,1.76-0.45,2.643-0.678c1.48-0.373,2.957-0.75,4.395-1.218
		c0.807-0.26,1.59-0.579,2.389-0.871c1.494-0.548,2.977-1.107,4.424-1.748c0.215-0.094,0.439-0.157,0.654-0.261
		c0.082-0.032,0.127-0.113,0.197-0.147C302.945,342.855,319.824,318.548,319.555,290.283"/>
	<path fill="#FFFFFF" d="M249.381,497.423C112.434,497.423,1,385.994,1,249.041C1,128.149,87.448,25.343,206.53,4.578l13.336,76.464
		C138.02,95.309,78.623,165.968,78.623,249.041c0,94.155,76.608,170.763,170.759,170.763c94.15,0,170.759-76.609,170.759-170.763
		c0-83.073-59.396-153.732-141.244-167.999l13.336-76.464c119.082,20.765,205.531,123.57,205.531,244.462
		C497.764,385.994,386.328,497.423,249.381,497.423"/>
</g>
</svg>
